HIERARCHY
ROOT Hips
{
  OFFSET -187.679 86.5976 -156.378
  CHANNELS 6 Xposition Yposition Zposition Zrotation Xrotation Yrotation
  JOINT LeftUpLeg
  {
    OFFSET 8.64259 1.95398 -2.38835
    CHANNELS 3 Zrotation Xrotation Yrotation
    JOINT LeftLeg
    {
      OFFSET 43.7702 0 0
      CHANNELS 3 Zrotation Xrotation Yrotation
      JOINT LeftFoot
      {
        OFFSET 40.6238 0 0
        CHANNELS 3 Zrotation Xrotation Yrotation
        JOINT LeftToeBase
        {
          OFFSET 12.7242 0 0
          CHANNELS 3 Zrotation Xrotation Yrotation
          End Site
          {
            OFFSET 0 0 0
          }
        }
      }
    }
  }
  JOINT RightUpLeg
  {
    OFFSET -8.2249 1.95398 -2.59336
    CHANNELS 3 Zrotation Xrotation Yrotation
    JOINT RightLeg
    {
      OFFSET 43.5653 0 0
      CHANNELS 3 Zrotation Xrotation Yrotation
      JOINT RightFoot
      {
        OFFSET 40.6238 0 0
        CHANNELS 3 Zrotation Xrotation Yrotation
        JOINT RightToeBase
        {
          OFFSET 12.7242 0 0
          CHANNELS 3 Zrotation Xrotation Yrotation
          End Site
          {
            OFFSET 0 0 0
          }
        }
      }
    }
  }
  JOINT Spine
  {
    OFFSET 0.165834 0.87714 6.61349
    CHANNELS 3 Zrotation Xrotation Yrotation
    JOINT Spine1
    {
      OFFSET 7.38963 1.71661e-005 0
      CHANNELS 3 Zrotation Xrotation Yrotation
      JOINT Spine2
      {
        OFFSET 11.9445 1.14441e-005 0
        CHANNELS 3 Zrotation Xrotation Yrotation
        JOINT Spine3
        {
          OFFSET 14.7254 4.19617e-005 0
          CHANNELS 3 Zrotation Xrotation Yrotation
          JOINT Spine4
          {
            OFFSET 10.9679 0 0
            CHANNELS 3 Zrotation Xrotation Yrotation
            JOINT RightShoulder
            {
              OFFSET 2.46616 -1.6653 3.69651
              CHANNELS 3 Zrotation Xrotation Yrotation
              JOINT RightArm
              {
                OFFSET 13.0012 0 0
                CHANNELS 3 Zrotation Xrotation Yrotation
                JOINT RightForeArm
                {
                  OFFSET 28.7848 1.52588e-005 0
                  CHANNELS 3 Zrotation Xrotation Yrotation
                  JOINT RightHand
                  {
                    OFFSET 26.5688 1.52588e-005 0
                    CHANNELS 3 Zrotation Xrotation Yrotation
                    End Site
                    {
                      OFFSET 0 0 0
                    }
                  }
                }
              }
            }
            JOINT LeftShoulder
            {
              OFFSET 2.38034 -1.29275 -3.7523
              CHANNELS 3 Zrotation Xrotation Yrotation
              JOINT LeftArm
              {
                OFFSET 16.3182 6.10352e-005 0
                CHANNELS 3 Zrotation Xrotation Yrotation
                JOINT LeftForeArm
                {
                  OFFSET 27.0901 0 0
                  CHANNELS 3 Zrotation Xrotation Yrotation
                  JOINT LeftHand
                  {
                    OFFSET 24.5451 1.52588e-005 0
                    CHANNELS 3 Zrotation Xrotation Yrotation
                    End Site
                    {
                      OFFSET 0 0 0
                    }
                  }
                }
              }
            }
            JOINT Neck
            {
              OFFSET 5.0226 -0.0266342 0
              CHANNELS 3 Zrotation Xrotation Yrotation
              JOINT Head
              {
                OFFSET 6.69363 2.86102e-005 0
                CHANNELS 3 Zrotation Xrotation Yrotation
                End Site
                {
                  OFFSET 0 0 0
                }
              }
            }
          }
        }
      }
    }
  }
}
MOTION
Frames:	6
Frame Time:	0.0416667
-154.797 85.0679 -126.752 71.0069 -34.8017 76.1177 -170.092 5.22445 93.2401 -46.3728 24.2415 0.390067 95.9751 16.7777 -2.77992 35.1236 6.25104 -15.2604 -167.88 64.9716 87.9101 -95.2385 22.4094 -5.5833 86.3507 -8.01444 -1.11143 24.0201 -2.99853 6.78601 -3.29156 8.49835 -89.3306 9.93613 -6.2563 1.83902 -1.72137 -6.16929 2.1135 -24.3784 -6.51861 -0.134191 -4.36575 -6.51861 -0.134184 97.4636 -43.9666 -89.7441 38.282 -26.6771 56.6296 -75.7028 -7.85913 -78.9115 -6.2044 -0.244942 -0.586616 -83.9163 -10.5662 80.0658 -10.3435 -25.6236 -73.1426 46.6707 -10.3038 -99.0639 13.4664 1.49726 7.21743 40.1327 4.49569 -13.6785 2.01297 10.7109 -4.33645 
-145.709 86.8695 -119.577 68.7056 -39.0544 78.7409 -171.026 -6.91222 89.613 -28.8435 25.1977 3.39853 77.4873 9.24459 0.631952 48.5146 8.44215 -11.4383 -170.887 69.2665 94.5696 -80.467 16.1842 -4.7728 84.1197 -7.4793 -0.955455 22.3249 -2.63912 4.6552 -3.41961 8.68439 -90.14 9.52652 -6.88125 0.245041 -2.12619 -6.86376 0.549101 -24.8015 -6.63531 -1.84379 -4.78887 -6.63529 -1.84379 97.934 -39.8486 -89.3744 34.1742 -20.1207 60.4361 -71.9622 0.017518 -82.4543 -6.45513 -0.276235 -0.0133418 -81.2978 -1.84639 84.7177 -19.4145 -29.8786 -74.8511 44.4426 -9.19416 -103.315 13.6959 1.19995 4.91797 48.4219 8.21189 -10.8023 -1.98045 13.672 -5.59563 
-135.819 89.0384 -111.927 67.7249 -44.4816 81.6059 -172.948 -16.9224 90.9562 -17.4509 25.3647 8.34141 54.904 -1.08425 1.18619 44.7215 7.7513 -12.6293 -178.96 66.3912 104.853 -64.0888 6.01551 -1.78904 78.1166 -6.16709 0.0201166 24.8087 -1.97615 4.17914 -3.07672 8.94484 -90.9036 8.95111 -6.54014 -1.34079 -2.70373 -6.59277 -1.05044 -25.344 -5.834 -3.25024 -5.33138 -5.834 -3.25025 92.5803 -37.0594 -99.479 33.9597 -8.33717 63.7181 -66.6358 4.90538 -87.1332 -10.2615 -0.634082 2.28642 -80.8975 -0.930398 85.8464 -19.1572 -27.0716 -72.4676 42.9538 -10.4599 -104.062 12.8232 0.738158 1.99081 52.0832 11.9184 -7.02804 -3.59249 15.2659 -6.20546 
-126.354 90.0925 -104.11 67.0827 -48.2787 81.5535 -173.479 -17.8005 89.023 -24.6988 32.1062 8.47874 52.8739 -2.35871 2.03161 22.263 -3.50494 2.80621 175.623 61.2045 109.75 -54.2915 -0.593884 1.88841 77.0773 -6.07374 -0.196837 27.7746 -1.64285 5.00235 -2.70322 8.91706 -91.3142 8.98209 -5.97818 -2.19019 -2.6765 -6.06873 -1.92414 -25.2809 -5.04349 -3.88855 -5.26831 -5.04349 -3.88854 88.9972 -33.125 -107.31 38.8091 -2.65492 61.5498 -59.9522 8.41016 -88.6881 -10.1344 -0.726097 3.44235 -81.8878 -6.33353 84.3604 -14.3129 -15.2446 -66.3214 47.0444 -15.8467 -102.191 9.14164 0.536344 2.0375 48.5112 15.434 -2.14787 -0.892452 15.4211 -7.40809 
-117.776 89.6469 -96.939 68.8351 -49.1694 80.2915 -172.289 -13.5965 87.2388 -41.6451 34.1717 5.03602 55.0389 -1.94108 1.44036 32.3877 2.29055 -3.30687 172.531 55.2522 108.69 -53.8874 5.55541 4.64347 76.8129 -5.84345 0.190788 28.7085 -1.43947 4.91515 -2.6498 8.96961 -91.2993 8.87953 -5.86434 -2.17502 -2.77954 -5.95435 -1.91406 -25.3809 -4.93947 -3.83964 -5.36827 -4.93948 -3.83964 85.5 -43.3346 -109.71 25.9492 -1.57358 51.5236 -52.6291 10.4229 -94.9209 -11.423 -1.09005 6.31071 -84.7841 -16.9871 80.2904 -7.86203 -0.230789 -57.9681 57.9748 -22.6824 -97.6885 7.84146 0.931016 7.24499 48.8057 17.168 -0.513913 -0.76084 16.1294 -7.008 
-109.293 89.8472 -89.3016 72.3851 -50.0439 81.8688 -169.227 -5.62035 90.3011 -63.109 27.6562 3.42019 51.3872 -3.80921 -0.119089 31.6511 2.69893 -5.61161 170.698 47.2958 106.077 -57.4772 6.76007 6.43029 75.1341 -4.93633 0.379281 20.4497 -2.14626 2.34952 -2.44105 9.10244 -91.2884 8.61465 -5.44104 -2.20039 -3.04636 -5.53258 -1.95821 -25.6347 -4.52826 -3.73581 -5.62205 -4.52825 -3.7358 84.2529 -50.4937 -109.163 15.9592 1.77954 34.5952 -51.2178 10.9362 -98.6288 -11.7214 -1.31707 8.31487 -88.7778 -29.2411 75.5623 -4.6803 17.0357 -44.4686 65.7601 -27.4455 -92.6091 5.46826 0.519428 4.40297 47.2056 17.528 0.682782 1.9593 15.6758 -6.6186 
